<svg width="180" height="41" viewBox="0 0 180 41" fill="none" xmlns="http://www.w3.org/2000/svg">
<path d="M0 40.1575V0.842465H27.6523V9.21096H8.93812V19.9384H22.2894V21.0616H8.93812V40.1575H0Z" fill="#FBE8AB"/>
<path d="M55.1501 41C51.4259 41 48.1672 40.3822 45.374 39.1466C42.5809 37.911 40.3836 36.1511 38.7822 33.8671C37.1807 31.5457 36.3056 28.8498 36.1566 25.7795H45.0388C45.2251 27.4269 45.7092 28.8498 46.4913 30.0479C47.2734 31.2087 48.3534 32.1073 49.7314 32.7438C51.1093 33.3804 52.7107 33.6986 54.5356 33.6986C57.217 33.6986 59.284 33.1932 60.7364 32.1822C62.2261 31.1338 62.9709 29.6735 62.9709 27.8014C62.9709 26.416 62.524 25.274 61.6302 24.3753C60.7364 23.4393 59.4516 22.653 57.7757 22.0164C56.0998 21.3799 53.9025 20.7808 51.1838 20.2192H51.1279C48.1858 19.5826 45.7464 18.8525 43.8099 18.0288C41.9105 17.205 40.4208 16.1566 39.3408 14.8836C38.298 13.6105 37.7766 12.0753 37.7766 10.2781C37.7766 8.21872 38.447 6.42146 39.7877 4.8863C41.1657 3.3137 43.0278 2.11553 45.374 1.29178C47.7203 0.430594 50.3831 0 53.3625 0C57.0122 0 60.1778 0.599087 62.8592 1.79726C65.5779 2.99543 67.7007 4.69909 69.2276 6.90822C70.7545 9.11735 71.6111 11.7571 71.7973 14.8274H62.524C62.3006 12.5059 61.4068 10.69 59.8426 9.37945C58.2784 8.06895 56.2115 7.4137 53.6418 7.4137C52.0404 7.4137 50.6438 7.65708 49.452 8.14383C48.2603 8.59315 47.3479 9.26712 46.7147 10.1658C46.0816 11.0269 45.7651 12.0753 45.7651 13.311C45.7651 14.6963 46.2306 15.8196 47.1616 16.6808C48.0927 17.542 49.5265 18.3096 51.4631 18.9836C53.437 19.6575 56.2673 20.4064 59.9543 21.2301C60.1033 21.2676 60.2336 21.305 60.3454 21.3425C60.4943 21.3425 60.6433 21.3612 60.7923 21.3986C60.8668 21.4361 60.9412 21.4548 61.0157 21.4548C61.0902 21.4548 61.1647 21.4735 61.2392 21.511C63.3992 22.0352 65.2241 22.653 66.7138 23.3644C68.2035 24.0384 69.3766 24.9557 70.2332 26.1164C71.0897 27.2772 71.518 28.7374 71.518 30.4973C71.518 32.5566 70.829 34.3913 69.4511 36.0014C68.1103 37.574 66.1924 38.8096 63.6972 39.7082C61.2019 40.5694 58.3529 41 55.1501 41Z" fill="#FBE8AB"/>
<path d="M94.9317 40.1575V9.49178H80.8541V0.842465H117.891V9.49178H103.87V40.1575H94.9317Z" fill="#FBE8AB"/>
<path d="M135.98 40.1575L126.818 0.842465H136.092L144.694 37.7425L152.795 0.842465H154.079L162.235 37.7425L170.838 0.842465H180L170.838 40.1575H161.565L153.409 3.20137L145.365 40.1575H135.98Z" fill="#FBE8AB"/>
</svg>
