<?xml version="1.0" standalone="no"?>
<!DOCTYPE svg PUBLIC "-//W3C//DTD SVG 20010904//EN"
 "http://www.w3.org/TR/2001/REC-SVG-20010904/DTD/svg10.dtd">
<svg version="1.0" xmlns="http://www.w3.org/2000/svg"
 width="512.000000pt" height="512.000000pt" viewBox="0 0 512.000000 512.000000"
 preserveAspectRatio="xMidYMid meet">

<g transform="translate(0.000000,512.000000) scale(0.100000,-0.100000)"
fill="#000000" stroke="none">
<path d="M2021 5109 c-128 -25 -257 -125 -311 -241 -37 -79 -50 -146 -50 -259
l0 -89 -464 0 c-273 0 -485 -4 -517 -10 -180 -34 -325 -179 -359 -359 -5 -30
-10 -134 -10 -233 0 -159 2 -183 20 -218 31 -61 78 -80 194 -80 l95 0 5 -42
c4 -24 64 -754 135 -1623 138 -1683 134 -1648 195 -1744 64 -100 180 -179 295
-201 73 -14 2549 -14 2622 0 115 22 231 101 295 201 61 96 57 61 195 1744 71
869 131 1599 135 1623 l5 42 95 0 c116 0 163 19 194 80 18 35 20 59 20 218 0
99 -5 203 -10 233 -34 180 -179 325 -359 359 -32 6 -244 10 -517 10 l-464 0 0
89 c0 48 -5 112 -10 142 -34 180 -179 325 -359 359 -65 12 -1006 12 -1070 -1z
m1059 -309 c60 -31 80 -78 80 -190 l0 -90 -600 0 -600 0 0 90 c0 110 20 159
78 189 35 19 59 20 520 21 465 0 484 -1 522 -20z m1350 -600 c60 -31 80 -78
80 -190 l0 -90 -1950 0 -1950 0 0 90 c0 110 20 159 78 189 36 20 65 20 1870
21 1818 0 1833 0 1872 -20z m-236 -627 c-3 -27 -63 -751 -134 -1611 l-128
-1562 -27 -36 c-52 -68 34 -64 -1345 -64 -1379 0 -1293 -4 -1345 64 l-27 36
-128 1562 c-71 860 -131 1584 -134 1611 l-5 47 1639 0 1639 0 -5 -47z"/>
<path d="M1588 3299 c-23 -12 -46 -35 -58 -59 -20 -39 -20 -57 -20 -1130 0
-1073 0 -1091 20 -1130 23 -45 80 -80 130 -80 50 0 107 35 130 80 20 39 20 57
20 1130 0 1073 0 1091 -20 1130 -37 73 -127 99 -202 59z"/>
<path d="M2488 3299 c-23 -12 -46 -35 -58 -59 -20 -39 -20 -57 -20 -1130 0
-1073 0 -1091 20 -1130 23 -45 80 -80 130 -80 50 0 107 35 130 80 20 39 20 57
20 1130 0 1073 0 1091 -20 1130 -37 73 -127 99 -202 59z"/>
<path d="M3388 3299 c-23 -12 -46 -35 -58 -59 -20 -39 -20 -57 -20 -1130 0
-1073 0 -1091 20 -1130 23 -45 80 -80 130 -80 50 0 107 35 130 80 20 39 20 57
20 1130 0 1073 0 1091 -20 1130 -37 73 -127 99 -202 59z"/>
</g>
</svg>
