<svg width="132" height="67" viewBox="0 0 132 67" fill="none" xmlns="http://www.w3.org/2000/svg">
<path d="M0 44.1864H132V67H0V44.1864Z" fill="black"/>
<path d="M0 0H132V42.1452H0V0Z" fill="black"/>
<path d="M6.30093 14.9561C6.30093 11.7318 7.16812 9.31356 8.90249 7.7014C10.6369 6.08923 13.3601 5.28315 17.0723 5.28315H27.9806V8.7052H17.0723C14.8511 8.7052 13.2232 9.22231 12.1887 10.2565C11.1541 11.2603 10.6369 12.8269 10.6369 14.9561V20.4314H25.7442V23.8991H10.6369V37.2222H6.30093V14.9561Z" fill="white"/>
<path d="M43.8186 37.7241C40.8975 37.7241 38.5394 37.2831 36.7442 36.4009C34.9794 35.5188 33.321 34.0587 31.7692 32.0207L34.6903 29.5112C35.9683 31.2755 37.2766 32.5226 38.6155 33.2527C39.9543 33.9523 41.643 34.3021 43.6817 34.3021C46.3897 34.3021 48.4436 33.8306 49.8433 32.8876C51.2734 31.9143 51.9884 30.4998 51.9884 28.6443C51.9884 27.5797 51.6994 26.7127 51.1212 26.0435C50.5735 25.3743 49.5998 24.7964 48.2002 24.3097C46.8005 23.7926 44.7314 23.2603 41.9929 22.7128C38.9197 22.1044 36.6529 21.0702 35.1923 19.6101C33.7318 18.15 33.0016 16.2185 33.0016 13.8154C33.0016 11.017 34.0057 8.81166 36.0139 7.1995C38.0525 5.58733 40.8367 4.78125 44.3663 4.78125C49.5694 4.78125 53.2512 6.49988 55.4115 9.93713L52.4905 12.3097C51.4255 10.9409 50.2388 9.92192 48.9304 9.25272C47.6525 8.55311 46.1159 8.2033 44.3206 8.2033C42.1299 8.2033 40.4107 8.7052 39.1632 9.70899C37.9461 10.6824 37.3375 12.0208 37.3375 13.7242C37.3375 15.2451 37.9461 16.4466 39.1632 17.3287C40.3803 18.1805 42.2211 18.8497 44.6858 19.3363C47.5156 19.9143 49.752 20.5531 51.3951 21.2527C53.0382 21.9523 54.2705 22.8801 55.092 24.0359C55.9136 25.1918 56.3244 26.7127 56.3244 28.5987C56.3244 31.6101 55.2594 33.8914 53.1295 35.4428C51.0299 36.9637 47.9263 37.7241 43.8186 37.7241Z" fill="white"/>
<path d="M68.7167 8.7052H58.63V5.28315H83.1851V8.7052H73.0527V37.2222H68.7167V8.7052Z" fill="white"/>
<path d="M124.299 5.28315L116.996 37.2222H115.627C113.74 37.2222 112.326 36.8572 111.382 36.1272C110.439 35.3971 109.648 34.0435 109.009 32.0663L105.038 19.6557L101.022 32.0663C100.413 33.9827 99.622 35.3211 98.6483 36.0815C97.705 36.842 96.3054 37.2222 94.4493 37.2222H93.08L85.7774 5.28315H89.8851L96.2293 33.2983C96.777 32.9941 97.2334 32.3097 97.5985 31.2451L105.038 9.38961L112.432 31.2451C112.828 32.3401 113.284 33.0093 113.801 33.2527L120.145 5.28315H124.299Z" fill="white"/>
<path d="M4.36525 52.8037C4.36525 51.7278 4.64711 50.9338 5.21082 50.4215C5.77453 49.8989 6.6406 49.6376 7.80902 49.6376H11.5449V50.2985H7.80902C6.89683 50.2985 6.2255 50.5034 5.79503 50.9133C5.37481 51.3129 5.1647 51.943 5.1647 52.8037V55.0015H10.7301V55.6623H5.1647V60.3961H4.36525V52.8037Z" fill="white"/>
<path d="M16.6242 53.0035C16.9727 53.0035 17.2699 53.0803 17.5159 53.234L17.3006 53.941C17.0342 53.7976 16.7369 53.7258 16.409 53.7258C15.8452 53.7258 15.3482 54.0127 14.9177 54.5865C14.4975 55.15 14.2156 55.9134 14.0721 56.8765V60.3961H13.3342V54.2023C13.3342 54.0486 13.3034 53.9205 13.2419 53.8181C13.1907 53.7156 13.0882 53.5926 12.9344 53.4492L13.4418 53.0035C13.6775 53.1469 13.8415 53.3109 13.9337 53.4953C14.026 53.6797 14.0721 53.9359 14.0721 54.2638V55.2474C14.2976 54.5302 14.6307 53.9769 15.0714 53.5875C15.5121 53.1982 16.0297 53.0035 16.6242 53.0035Z" fill="white"/>
<path d="M21.427 60.5651C20.4841 60.5651 19.7512 60.3192 19.2285 59.8274C18.7058 59.3356 18.4444 58.6542 18.4444 57.7833V55.7699C18.4444 54.899 18.7058 54.2228 19.2285 53.7412C19.7512 53.2494 20.4841 53.0035 21.427 53.0035C22.3597 53.0035 23.0874 53.2494 23.6101 53.7412C24.1431 54.2228 24.4096 54.899 24.4096 55.7699V57.7833C24.4096 58.6542 24.1431 59.3356 23.6101 59.8274C23.0874 60.3192 22.3597 60.5651 21.427 60.5651ZM21.427 59.935C22.1342 59.935 22.6825 59.7506 23.072 59.3817C23.4615 59.0026 23.6562 58.4698 23.6562 57.7833V55.7699C23.6562 55.0834 23.4615 54.5558 23.072 54.1869C22.6825 53.8078 22.1342 53.6183 21.427 53.6183C20.7095 53.6183 20.1561 53.8078 19.7666 54.1869C19.3771 54.5558 19.1824 55.0834 19.1824 55.7699V57.7833C19.1824 58.4698 19.3771 59.0026 19.7666 59.3817C20.1561 59.7506 20.7095 59.935 21.427 59.935Z" fill="white"/>
<path d="M34.7534 53.0035C35.3888 53.0035 35.891 53.2238 36.26 53.6644C36.6392 54.1049 36.8288 54.6992 36.8288 55.4472V60.3961H36.0755V55.6009C36.0755 54.9656 35.9423 54.4789 35.6758 54.1408C35.4093 53.7924 35.0352 53.6183 34.5535 53.6183C33.959 53.6183 33.4363 53.8642 32.9853 54.356C32.5446 54.8478 32.2525 55.5035 32.109 56.3232V60.3961H31.3557V55.6009C31.3557 54.9656 31.2225 54.4789 30.956 54.1408C30.6997 53.7924 30.3256 53.6183 29.8337 53.6183C29.2392 53.6183 28.7165 53.8642 28.2655 54.356C27.8248 54.8478 27.5327 55.5035 27.3892 56.3232V60.3961H26.6513V54.2023C26.6513 54.0486 26.6205 53.9205 26.559 53.8181C26.5078 53.7156 26.4053 53.5926 26.2515 53.4492L26.7281 53.0035C26.9639 53.1469 27.133 53.3109 27.2355 53.4953C27.338 53.6797 27.3892 53.9205 27.3892 54.2177V54.9246C27.6352 54.3099 27.9837 53.8385 28.4347 53.5107C28.8959 53.1725 29.4288 53.0035 30.0335 53.0035C30.6075 53.0035 31.0739 53.1828 31.4326 53.5414C31.7913 53.9 32.0014 54.4021 32.0629 55.0476C32.2781 54.4021 32.6215 53.9 33.093 53.5414C33.5644 53.1828 34.1179 53.0035 34.7534 53.0035Z" fill="white"/>
<path d="M45.014 60.5651C44.4196 60.5651 43.9122 60.4678 43.492 60.2731C43.0718 60.0784 42.7028 59.771 42.3851 59.351L42.8771 58.9206C43.1948 59.2997 43.5074 59.5661 43.8149 59.7198C44.1326 59.8633 44.5323 59.935 45.014 59.935C45.6802 59.935 46.1876 59.812 46.5361 59.5661C46.8948 59.3202 47.0742 58.9667 47.0742 58.5056C47.0742 58.2188 47.0024 57.9882 46.8589 57.814C46.7257 57.6399 46.4899 57.4913 46.1517 57.3683C45.8237 57.2454 45.3471 57.1275 44.7219 57.0148C43.9942 56.8816 43.451 56.6511 43.0923 56.3232C42.7438 55.9953 42.5696 55.5496 42.5696 54.9861C42.5696 54.3816 42.7951 53.9 43.246 53.5414C43.7073 53.1828 44.3171 53.0035 45.0755 53.0035C45.67 53.0035 46.1773 53.1008 46.5976 53.2955C47.028 53.4902 47.356 53.7771 47.5815 54.1562L47.0895 54.5711C46.6386 53.9359 45.9672 53.6183 45.0755 53.6183C44.5426 53.6183 44.1121 53.7463 43.7841 54.0025C43.4561 54.2484 43.2922 54.5763 43.2922 54.9861C43.2922 55.3652 43.4254 55.6624 43.6919 55.8775C43.9686 56.0927 44.4298 56.2618 45.0755 56.3847C46.08 56.5794 46.7821 56.8355 47.1818 57.1532C47.5917 57.4708 47.7967 57.9267 47.7967 58.521C47.7967 59.1768 47.5559 59.684 47.0742 60.0426C46.6027 60.3909 45.916 60.5651 45.014 60.5651Z" fill="white"/>
<path d="M50.4334 53.7873V58.4903C50.4334 59.4329 50.8638 59.9042 51.7248 59.9042H52.5089V60.519H51.7248C50.3719 60.519 49.6954 59.8428 49.6954 58.4903V51.3282C49.6954 51.1745 49.6647 51.0465 49.6032 50.944C49.5519 50.8416 49.4494 50.7186 49.2957 50.5752L49.7877 50.1294C50.0336 50.2729 50.2028 50.4368 50.295 50.6213C50.3872 50.8057 50.4334 51.0618 50.4334 51.3897V53.1725H52.5089V53.7873H50.4334Z" fill="white"/>
<path d="M60.1892 59.351C60.1892 59.5149 60.2149 59.6481 60.2661 59.7506C60.3276 59.853 60.4403 59.976 60.6043 60.1194L60.097 60.5651C59.851 60.4217 59.6768 60.2577 59.5743 60.0733C59.482 59.8786 59.4359 59.6174 59.4359 59.2895V58.7208C59.1797 59.3151 58.8158 59.771 58.3444 60.0887C57.8729 60.4063 57.3143 60.5651 56.6686 60.5651C55.9409 60.5651 55.3772 60.3397 54.9775 59.8889C54.5777 59.4278 54.3779 58.7925 54.3779 57.9831V53.1725H55.1312V57.9524C55.1312 58.5876 55.2798 59.0794 55.577 59.4278C55.8845 59.7659 56.3201 59.935 56.8838 59.935C57.4988 59.935 58.0318 59.7044 58.4827 59.2434C58.9439 58.7823 59.2617 58.1675 59.4359 57.3991V53.1725H60.1892V59.351Z" fill="white"/>
<path d="M68.7524 59.351C68.7524 59.5046 68.7781 59.6327 68.8293 59.7352C68.8908 59.8376 68.9984 59.9606 69.1522 60.104L68.6756 60.5651C68.2348 60.2987 68.0145 59.8633 68.0145 59.2587C67.748 59.6788 67.3995 60.0016 66.969 60.227C66.5488 60.4524 66.0671 60.5651 65.5239 60.5651C64.8987 60.5651 64.3503 60.4217 63.8789 60.1348C63.4074 59.8376 63.0384 59.4227 62.7719 58.8899C62.5157 58.3571 62.3876 57.7372 62.3876 57.0302V56.5384C62.3876 55.8314 62.5157 55.2115 62.7719 54.6787C63.0384 54.1459 63.4074 53.7361 63.8789 53.4492C64.3503 53.1521 64.8987 53.0035 65.5239 53.0035C66.0774 53.0035 66.5693 53.1162 66.9998 53.3416C67.4303 53.5568 67.7685 53.8693 68.0145 54.2791V50.5752C68.0145 50.4112 67.9889 50.2831 67.9376 50.1909C67.8864 50.0885 67.7787 49.9655 67.6148 49.8221L68.1221 49.3764C68.3578 49.5198 68.5218 49.6837 68.6141 49.8682C68.7063 50.0526 68.7524 50.3088 68.7524 50.6366V59.351ZM68.0145 55.3703C67.8197 54.8068 67.5328 54.3765 67.1535 54.0793C66.7743 53.7719 66.2618 53.6183 65.6161 53.6183C64.8679 53.6183 64.2632 53.8847 63.802 54.4174C63.351 54.9502 63.1255 55.6572 63.1255 56.5384V57.0302C63.1255 57.9114 63.351 58.6184 63.802 59.1512C64.2632 59.6737 64.8679 59.935 65.6161 59.935C66.2618 59.935 66.7743 59.7864 67.1535 59.4893C67.5328 59.1921 67.8197 58.7567 68.0145 58.1829V55.3703Z" fill="white"/>
<path d="M77.0203 53.1572V61.3951C77.0203 62.1943 76.805 62.7988 76.3745 63.2086C75.9543 63.6185 75.3343 63.8234 74.5143 63.8234H72.7002V63.2086H74.5143C75.0883 63.2086 75.5239 63.0498 75.8211 62.7322C76.1183 62.4248 76.2669 61.974 76.2669 61.3797V59.0589C75.7442 60.0631 74.8987 60.5651 73.7302 60.5651C72.9308 60.5651 72.3158 60.3448 71.8854 59.9042C71.4651 59.4534 71.255 58.813 71.255 57.9831V54.2177C71.255 54.064 71.2243 53.9359 71.1628 53.8334C71.1115 53.731 71.009 53.608 70.8553 53.4646L71.3626 53.0189C71.5984 53.1623 71.7624 53.3262 71.8546 53.5107C71.9469 53.6951 71.993 53.9513 71.993 54.2791V57.937C71.993 58.5825 72.1518 59.0794 72.4696 59.4278C72.7873 59.7659 73.2485 59.935 73.8532 59.935C74.2837 59.935 74.6783 59.8325 75.037 59.6276C75.406 59.4124 75.6981 59.1255 75.9133 58.7669C76.1388 58.4083 76.2567 58.0138 76.2669 57.5835V53.1572H77.0203Z" fill="white"/>
<path d="M83.7487 53.7873V58.4903C83.7487 59.4329 84.1791 59.9042 85.0401 59.9042H85.8242V60.519H85.0401C83.6872 60.519 83.0107 59.8428 83.0107 58.4903V51.3282C83.0107 51.1745 82.98 51.0465 82.9185 50.944C82.8672 50.8416 82.7647 50.7186 82.611 50.5752L83.103 50.1294C83.3489 50.2729 83.5181 50.4368 83.6103 50.6213C83.7025 50.8057 83.7487 51.0618 83.7487 51.3897V53.1725H85.8242V53.7873H83.7487Z" fill="white"/>
<path d="M90.3547 60.5651C89.4117 60.5651 88.6789 60.3192 88.1562 59.8274C87.6335 59.3356 87.3721 58.6542 87.3721 57.7833V55.7699C87.3721 54.899 87.6335 54.2228 88.1562 53.7412C88.6789 53.2494 89.4117 53.0035 90.3547 53.0035C91.2874 53.0035 92.0151 53.2494 92.5378 53.7412C93.0707 54.2228 93.3372 54.899 93.3372 55.7699V57.7833C93.3372 58.6542 93.0707 59.3356 92.5378 59.8274C92.0151 60.3192 91.2874 60.5651 90.3547 60.5651ZM90.3547 59.935C91.0619 59.935 91.6102 59.7506 91.9997 59.3817C92.3892 59.0026 92.5839 58.4698 92.5839 57.7833V55.7699C92.5839 55.0834 92.3892 54.5558 91.9997 54.1869C91.6102 53.8078 91.0619 53.6183 90.3547 53.6183C89.6372 53.6183 89.0837 53.8078 88.6943 54.1869C88.3048 54.5558 88.1101 55.0834 88.1101 55.7699V57.7833C88.1101 58.4698 88.3048 59.0026 88.6943 59.3817C89.0837 59.7506 89.6372 59.935 90.3547 59.935Z" fill="white"/>
<path d="M98.3495 53.1725H99.0413L100.533 59.7506C100.676 59.7301 100.789 59.6788 100.871 59.5969C100.963 59.5149 101.04 59.3919 101.101 59.228L102.839 53.8795L104.576 59.228C104.678 59.5354 104.863 59.7044 105.129 59.7352L106.621 53.1725H107.313L105.652 60.3961H105.314C104.668 60.3961 104.248 60.104 104.053 59.52L102.823 55.647L101.609 59.52C101.506 59.8172 101.353 60.0374 101.148 60.1809C100.943 60.3243 100.676 60.3961 100.348 60.3961H100.01L98.3495 53.1725Z" fill="white"/>
<path d="M111.524 60.5651C110.581 60.5651 109.848 60.3192 109.325 59.8274C108.803 59.3356 108.541 58.6542 108.541 57.7833V55.7699C108.541 54.899 108.803 54.2228 109.325 53.7412C109.848 53.2494 110.581 53.0035 111.524 53.0035C112.457 53.0035 113.184 53.2494 113.707 53.7412C114.24 54.2228 114.506 54.899 114.506 55.7699V57.7833C114.506 58.6542 114.24 59.3356 113.707 59.8274C113.184 60.3192 112.457 60.5651 111.524 60.5651ZM111.524 59.935C112.231 59.935 112.779 59.7506 113.169 59.3817C113.558 59.0026 113.753 58.4698 113.753 57.7833V55.7699C113.753 55.0834 113.558 54.5558 113.169 54.1869C112.779 53.8078 112.231 53.6183 111.524 53.6183C110.806 53.6183 110.253 53.8078 109.864 54.1869C109.474 54.5558 109.279 55.0834 109.279 55.7699V57.7833C109.279 58.4698 109.474 59.0026 109.864 59.3817C110.253 59.7506 110.806 59.935 111.524 59.935Z" fill="white"/>
<path d="M120.038 53.0035C120.387 53.0035 120.684 53.0803 120.93 53.234L120.715 53.941C120.448 53.7976 120.151 53.7258 119.823 53.7258C119.259 53.7258 118.762 54.0127 118.332 54.5865C117.911 55.15 117.63 55.9134 117.486 56.8765V60.3961H116.748V54.2023C116.748 54.0486 116.717 53.9205 116.656 53.8181C116.605 53.7156 116.502 53.5926 116.348 53.4492L116.856 53.0035C117.092 53.1469 117.256 53.3109 117.348 53.4953C117.44 53.6797 117.486 53.9359 117.486 54.2638V55.2474C117.712 54.5302 118.045 53.9769 118.485 53.5875C118.926 53.1982 119.444 53.0035 120.038 53.0035Z" fill="white"/>
<path d="M125.437 55.7853C125.96 55.857 126.37 56.0568 126.667 56.3847C126.974 56.7023 127.21 57.1788 127.374 57.814L128.02 60.3961H127.266L126.605 57.814C126.482 57.3222 126.293 56.9687 126.037 56.7536C125.78 56.5281 125.391 56.395 124.868 56.354L123.146 58.0599V60.3961H122.408V50.5752C122.408 50.4112 122.383 50.278 122.331 50.1756C122.28 50.0731 122.173 49.9553 122.009 49.8221L122.516 49.3764C122.752 49.5198 122.916 49.6837 123.008 49.8682C123.1 50.0526 123.146 50.3088 123.146 50.6366V57.1378L127.113 53.1725H128.081L125.437 55.7853Z" fill="white"/>
</svg>
