<svg width="146" height="49" viewBox="0 0 146 49" fill="none" xmlns="http://www.w3.org/2000/svg">
<g filter="url(#filter0_d_1913_1354)">
<path d="M10 34.4041V6.59589H29.3566V12.5151H16.2567V20.1027H25.6026V20.8973H16.2567V34.4041H10Z" fill="#007FBE"/>
<path d="M48.6051 35C45.9981 35 43.717 34.563 41.7618 33.689C39.8066 32.8151 38.2685 31.5703 37.1475 29.9548C36.0265 28.3128 35.4139 26.4059 35.3096 24.2342H41.5272C41.6575 25.3995 41.9964 26.4059 42.5439 27.2534C43.0914 28.0744 43.8474 28.71 44.8119 29.1603C45.7765 29.6105 46.8975 29.8356 48.1749 29.8356C50.0519 29.8356 51.4988 29.4781 52.5155 28.763C53.5583 28.0215 54.0797 26.9886 54.0797 25.6644C54.0797 24.6845 53.7668 23.8767 53.1412 23.2411C52.5155 22.579 51.6161 22.0228 50.443 21.5726C49.2698 21.1224 47.7317 20.6986 45.8287 20.3014H45.7896C43.7301 19.8511 42.0225 19.3347 40.6669 18.7521C39.3374 18.1694 38.2946 17.4279 37.5386 16.5274C36.8086 15.6269 36.4436 14.5411 36.4436 13.2699C36.4436 11.8132 36.9129 10.542 37.8514 9.45616C38.816 8.34384 40.1194 7.49635 41.7618 6.9137C43.4042 6.30457 45.2682 6 47.3537 6C49.9085 6 52.1244 6.42374 54.0014 7.27123C55.9045 8.11872 57.3905 9.32375 58.4593 10.8863C59.5282 12.4489 60.1278 14.316 60.2581 16.4877H53.7668C53.6104 14.8457 52.9847 13.5612 51.8898 12.6342C50.7949 11.7073 49.348 11.2438 47.5492 11.2438C46.4283 11.2438 45.4506 11.416 44.6164 11.7603C43.7822 12.0781 43.1435 12.5548 42.7003 13.1904C42.2571 13.7995 42.0355 14.5411 42.0355 15.4151C42.0355 16.395 42.3614 17.1895 43.0132 17.7986C43.6649 18.4078 44.6686 18.9507 46.0242 19.4274C47.4059 19.9041 49.3871 20.4338 51.968 21.0164C52.0723 21.0429 52.1635 21.0694 52.2418 21.0959C52.346 21.0959 52.4503 21.1091 52.5546 21.1356C52.6067 21.1621 52.6589 21.1753 52.711 21.1753C52.7631 21.1753 52.8153 21.1886 52.8674 21.2151C54.3795 21.5858 55.6569 22.0228 56.6996 22.526C57.7424 23.0027 58.5636 23.6516 59.1632 24.4726C59.7628 25.2936 60.0626 26.3265 60.0626 27.5712C60.0626 29.0279 59.5803 30.3256 58.6157 31.4644C57.6772 32.5767 56.3347 33.4507 54.588 34.0863C52.8414 34.6954 50.847 35 48.6051 35Z" fill="#007FBE"/>
<path d="M76.4522 34.4041V12.7137H66.5979V6.59589H92.524V12.7137H82.7089V34.4041H76.4522Z" fill="#007FBE"/>
<path d="M105.186 34.4041L98.7728 6.59589H105.264L111.286 32.6959L116.956 6.59589H117.856L123.565 32.6959L129.587 6.59589H136L129.587 34.4041H123.096L117.386 8.26438L111.755 34.4041H105.186Z" fill="#007FBE"/>
</g>
<defs>
<filter id="filter0_d_1913_1354" x="0" y="0" width="146" height="49" filterUnits="userSpaceOnUse" color-interpolation-filters="sRGB">
<feFlood flood-opacity="0" result="BackgroundImageFix"/>
<feColorMatrix in="SourceAlpha" type="matrix" values="0 0 0 0 0 0 0 0 0 0 0 0 0 0 0 0 0 0 127 0" result="hardAlpha"/>
<feOffset dy="4"/>
<feGaussianBlur stdDeviation="5"/>
<feComposite in2="hardAlpha" operator="out"/>
<feColorMatrix type="matrix" values="0 0 0 0 0 0 0 0 0 0 0 0 0 0 0 0 0 0 0.25 0"/>
<feBlend mode="normal" in2="BackgroundImageFix" result="effect1_dropShadow_1913_1354"/>
<feBlend mode="normal" in="SourceGraphic" in2="effect1_dropShadow_1913_1354" result="shape"/>
</filter>
</defs>
</svg>
